<?xml version="1.0" encoding="UTF-8" standalone="no"?>
<!-- Created with Inkscape (http://www.inkscape.org/) -->

<svg
   width="300"
   height="300"
   viewBox="0 0 79.374998 79.375002"
   version="1.1"
   id="svg21108"
   inkscape:version="1.1.2 (0a00cf5339, 2022-02-04)"
   sodipodi:docname="code.svg"
   xmlns:inkscape="http://www.inkscape.org/namespaces/inkscape"
   xmlns:sodipodi="http://sodipodi.sourceforge.net/DTD/sodipodi-0.dtd"
   xmlns="http://www.w3.org/2000/svg"
   xmlns:svg="http://www.w3.org/2000/svg">
  <sodipodi:namedview
     id="namedview21110"
     pagecolor="#ffffff"
     bordercolor="#666666"
     borderopacity="1.0"
     inkscape:pageshadow="2"
     inkscape:pageopacity="0.0"
     inkscape:pagecheckerboard="0"
     inkscape:document-units="mm"
     showgrid="false"
     units="px"
     width="300px"
     inkscape:zoom="1.8310807"
     inkscape:cx="146.08859"
     inkscape:cy="156.46498"
     inkscape:window-width="1366"
     inkscape:window-height="706"
     inkscape:window-x="0"
     inkscape:window-y="0"
     inkscape:window-maximized="1"
     inkscape:current-layer="layer1" />
  <defs
     id="defs21105" />
  <g
     inkscape:label="Layer 1"
     inkscape:groupmode="layer"
     id="layer1">
    <path
       id="path89711"
       style="opacity:1;fill:#ffcc00;fill-opacity:1;stroke:none;stroke-width:0.199415"
       d="M 271.57422 57.101562 L 253.00977 69.572266 L 234.44531 82.041016 L 215.88086 94.509766 L 197.31641 106.98047 L 178.75195 119.44922 L 160.1875 131.91797 L 141.62305 144.38867 L 123.05859 156.85742 L 104.49414 169.32617 L 85.929688 181.79688 L 67.365234 194.26562 L 48.800781 206.73438 L 48.800781 231.67383 L 67.365234 219.20508 L 85.929688 206.73438 L 85.929688 206.73633 L 104.49414 194.26562 L 123.05859 181.79688 L 141.62305 169.32617 L 141.62305 169.32812 L 160.1875 156.85742 L 178.75195 144.38867 L 197.31641 131.91992 L 215.88086 119.44922 L 234.44531 106.98047 L 253.00977 94.509766 L 253.00977 94.511719 L 271.57422 82.041016 L 271.57422 57.101562 z "
       transform="scale(0.26458333)" />
    <path
       id="path89713"
       style="fill:#808000;fill-opacity:1;stroke:none;stroke-width:0.052762;opacity:1"
       d="M 12.911999,61.297094 8.0001516,57.99791 v -6.598469 l 4.9118474,3.299234 z" />
    <path
       id="path89750"
       style="opacity:1;fill:#ffff00;fill-opacity:1;stroke:#000000;stroke-width:1.12778px;stroke-linecap:butt;stroke-linejoin:miter;stroke-opacity:0"
       d="M 253.00977 44.632812 L 234.44531 57.101562 L 215.88086 69.572266 L 197.31641 82.041016 L 178.75195 94.509766 L 160.1875 106.98047 L 141.62305 119.44922 L 123.05859 131.91797 L 104.49414 144.38867 L 85.929688 156.85742 L 67.365234 169.32617 L 48.800781 181.79688 L 30.236328 194.26562 L 48.800781 206.73438 L 67.365234 194.26562 L 85.929688 181.79688 L 104.49414 169.32617 L 123.05859 156.85742 L 141.62305 144.38867 L 160.1875 131.91797 L 178.75195 119.44922 L 197.31641 106.98047 L 215.88086 94.509766 L 234.44531 82.041016 L 253.00977 69.572266 L 271.57422 57.101562 L 253.00977 44.632812 z "
       transform="scale(0.26458333)" />
    <path
       id="path22179"
       style="opacity:1;fill:#ffcc00;stroke:none;stroke-width:0.0467837"
       d="m 16.269327,10.352504 -4.697786,2.712111 4.697597,2.712296 h 1.89e-4 v -1.87e-4 z m 4.697561,-2.7123002 -4.697649,2.7121692 v 5.424422 l 4.697649,-2.712211 z m 4.697649,-2.71221 -4.697649,2.712169 v 5.4244212 l 4.697649,-2.71221 z" />
    <path
       id="path22183"
       style="opacity:1;fill:#ffcc00;fill-opacity:1;stroke:none;stroke-width:0.0467837"
       d="m 25.664537,21.201216 -4.697649,2.712169 v 5.42442 l 4.697649,-2.71221 z" />
    <path
       id="path22193"
       style="opacity:1;fill:#808000;stroke:none;stroke-width:0.0467837"
       d="m 16.269239,21.201256 v 5.424339 l 4.697649,2.71221 v -5.42442 z m -4.697649,-2.71221 v 5.424339 l 4.697649,2.71221 v -5.424419 z m -4.6976521,-2.71217 v 5.42434 l 4.6976521,2.712209 v -5.42442 z m -4.697654,-2.71221 v 5.424339 l 4.697656,2.712211 v -5.424421 z" />
    <path
       id="path22195"
       style="opacity:1;fill:#ffff00;stroke:none;stroke-width:0.0467837"
       d="m 20.966888,18.489005 -4.69769,2.712211 4.69769,2.712169 4.697649,-2.712169 z m -4.697649,-2.71221 -4.697691,2.71221 4.697691,2.712171 4.697649,-2.712171 z m -4.697649,-2.712171 -4.6976931,2.712211 4.6976931,2.71217 4.697649,-2.71217 z m -4.6976501,-2.71221 -4.697696,2.712211 4.697696,2.71217 4.6976501,-2.71217 z M 11.57159,7.6402038 6.8738969,10.352414 l 4.6976931,2.71217 4.697649,-2.71217 z m 4.697649,-2.71221 -4.69769,2.71221 4.69769,2.7121692 4.697649,-2.7121692 z m 4.697649,-2.712211 -4.69769,2.712211 4.69769,2.712169 4.697649,-2.712169 z" />
    <path
       id="path22609"
       style="opacity:1;fill:#808000;fill-opacity:1;stroke:none;stroke-width:0.0467837"
       d="m 61.931556,57.889569 v 5.42422 h 1.88e-4 l 4.697601,-2.71211 z m -4.697561,-2.712303 4.697655,2.71217 v 5.424422 l -4.697655,-2.712211 z m -4.697651,-2.712212 4.697651,2.712171 v 5.424422 l -4.697651,-2.712211 z" />
    <path
       id="path22613"
       style="opacity:1;fill:#808000;fill-opacity:1;stroke:none;stroke-width:0.0467837"
       d="m 52.536344,68.738277 4.697651,2.71217 v 5.424419 l -4.697651,-2.712209 z"
       inkscape:transform-center-x="1.0738668e-06" />
    <path
       id="path22623"
       style="opacity:1;fill:#ffcc00;fill-opacity:1;stroke:none;stroke-width:0.0467837"
       d="m 61.93165,68.738317 v 5.42434 l -4.697655,2.712209 v -5.424419 z m 4.697658,-2.712209 v 5.424339 l -4.697658,2.71221 v -5.42442 z m 4.697651,-2.712169 v 5.424338 l -4.697651,2.71221 v -5.424419 z m 4.697655,-2.71221 v 5.424339 l -4.697655,2.712209 v -5.424419 z" />
    <path
       id="path22625"
       style="opacity:1;fill:#ffff00;fill-opacity:1;stroke:none;stroke-width:0.0467837"
       d="m 57.234032,66.02606 4.697699,2.712209 -4.697699,2.71217 -4.697651,-2.71217 z m 4.697655,-2.71221 4.697695,2.71221 -4.697695,2.712169 -4.697655,-2.712169 z m 4.697658,-2.712172 4.697695,2.712212 -4.697695,2.71217 -4.697658,-2.71217 z m 4.697651,-2.71221 4.697695,2.712211 -4.697695,2.712171 -4.697651,-2.712171 z m -4.697651,-2.71221 4.697695,2.71221 -4.697695,2.71217 -4.697658,-2.71217 z m -4.697658,-2.712212 4.697695,2.712212 -4.697695,2.71217 -4.697655,-2.71217 z m -4.697655,-2.712212 4.697699,2.712212 -4.697699,2.712171 -4.697651,-2.712171 z" />
  </g>
</svg>
