<?xml version="1.0" encoding="UTF-8" standalone="no"?>
<!-- Created with Inkscape (http://www.inkscape.org/) -->

<svg
   width="300"
   height="300"
   viewBox="0 0 79.374999 79.374999"
   version="1.1"
   id="svg51910"
   inkscape:version="1.1.2 (0a00cf5339, 2022-02-04)"
   sodipodi:docname="data.svg"
   xmlns:inkscape="http://www.inkscape.org/namespaces/inkscape"
   xmlns:sodipodi="http://sodipodi.sourceforge.net/DTD/sodipodi-0.dtd"
   xmlns="http://www.w3.org/2000/svg"
   xmlns:svg="http://www.w3.org/2000/svg">
  <sodipodi:namedview
     id="namedview51912"
     pagecolor="#ffffff"
     bordercolor="#666666"
     borderopacity="1.0"
     inkscape:pageshadow="2"
     inkscape:pageopacity="0.0"
     inkscape:pagecheckerboard="0"
     inkscape:document-units="px"
     showgrid="false"
     units="px"
     width="300px"
     inkscape:zoom="1.4142136"
     inkscape:cx="93.691646"
     inkscape:cy="154.50283"
     inkscape:window-width="1366"
     inkscape:window-height="706"
     inkscape:window-x="0"
     inkscape:window-y="0"
     inkscape:window-maximized="1"
     inkscape:current-layer="layer1"
     inkscape:object-paths="true"
     inkscape:snap-nodes="false" />
  <defs
     id="defs51907">
    <filter
       inkscape:collect="always"
       style="color-interpolation-filters:sRGB"
       id="filter20460"
       x="-0.067348186"
       y="-0.073519343"
       width="1.1348555"
       height="1.132531">
      <feGaussianBlur
         inkscape:collect="always"
         stdDeviation="1.5790573"
         id="feGaussianBlur20462" />
    </filter>
  </defs>
  <g
     inkscape:label="Layer 1"
     inkscape:groupmode="layer"
     id="layer1">
    <path
       id="path8802"
       style="fill:none;stroke:#000000;stroke-width:0.321749;stroke-linecap:butt;stroke-linejoin:miter;stroke-miterlimit:4;stroke-dasharray:none;stroke-opacity:1"
       d="m 71.95848,74.709355 v 1.044638 m -4.289994,-1.044638 v 1.044638 m -4.289995,-1.044638 v 1.044638 m -4.289995,-1.044638 v 1.044638 m -4.289994,-1.044638 v 1.044638 m -4.289995,-1.044638 v 1.044638 m -4.289995,-1.044638 v 1.044638 m -4.289995,-1.044638 v 1.044638 m -4.289994,-1.044638 v 1.044638 m -4.289996,-1.044638 v 1.044638 m -4.289994,-1.044638 v 1.044638 m -4.289995,-1.044638 v 1.044638 m -4.289994,-1.044638 v 1.044638 m -4.289992,-1.044638 v 1.044638 M 11.89856,74.709355 v 1.044638 M 7.608568,74.709355 v 1.044638" />
    <path
       id="path8823"
       style="fill:none;stroke:#000000;stroke-width:0.321749;stroke-linecap:butt;stroke-linejoin:miter;stroke-miterlimit:4;stroke-dasharray:none;stroke-opacity:1"
       d="M 2.5248427,6.1128923 H 3.5694809 M 2.5248427,10.402887 h 1.0446382 m -1.0446382,4.289995 h 1.0446382 m -1.0446382,4.289995 h 1.0446382 m -1.0446382,4.289992 h 1.0446382 m -1.0446382,4.289996 h 1.0446382 m -1.0446382,4.289994 h 1.0446382 m -1.0446382,4.289994 h 1.0446382 m -1.0446382,4.289996 h 1.0446382 m -1.0446382,4.289994 h 1.0446382 m -1.0446382,4.289995 h 1.0446382 m -1.0446382,4.289995 h 1.0446382 m -1.0446382,4.289995 h 1.0446382 m -1.0446382,4.289994 h 1.0446382 m -1.0446382,4.289996 h 1.0446382 m -1.0446382,4.289994 h 1.0446382" />
    <path
       id="path52004"
       style="fill:none;fill-opacity:1;stroke:#5a5a00;stroke-width:0.471544;stroke-linecap:butt;stroke-linejoin:miter;stroke-miterlimit:4;stroke-dasharray:none;stroke-opacity:1"
       d="m 73.632609,75.017541 0.09323,-3.527368 C 72.370496,64.6225 71.202597,54.155727 66.741811,55.178787 65.938789,59.709607 63.723544,67.379526 61.300565,67.601699 57.70534,64.225428 52.420451,45.63043 51.495406,42.305661 49.954428,37.208648 44.615002,33.420391 43.002434,31.716155 38.928548,27.410686 41.116572,19.221196 37.169287,11.955144 36.597538,10.902688 35.915982,10.38083 35.157489,10.366338 h -9e-6 c -1.668684,-0.0319 -3.710118,2.392417 -5.775538,7.027832 -2.385888,5.35463 -7.020084,1.752008 -7.894753,15.609419 C 21.133615,38.6053 18.429434,48.776168 14.79686,46.474277 8.848983,42.705225 5.5533952,57.541657 3.2805289,74.317567"
       sodipodi:nodetypes="sscccccccsssc" />
    <rect
       style="fill:#ffff00;fill-opacity:1;stroke:none;stroke-width:2.13283"
       id="rect2211"
       width="12.487131"
       height="4.2234917"
       x="40.449039"
       y="-139.62408"
       transform="scale(1,-1)" />
    <rect
       style="fill:#ffff00;fill-opacity:1;stroke:none;stroke-width:2.33129"
       id="rect2293"
       width="14.919024"
       height="4.2234917"
       x="25.530014"
       y="-134.8111"
       transform="scale(1,-1)" />
    <rect
       style="fill:#ffff00;fill-opacity:1;stroke:none;stroke-width:2.54394"
       id="rect1321"
       width="17.764845"
       height="4.2234917"
       x="40.449039"
       y="-129.93735"
       transform="scale(1,-1)" />
    <rect
       style="fill:#ffff00;fill-opacity:1;stroke:none;stroke-width:2.32874"
       id="rect2295"
       width="14.886467"
       height="4.2234917"
       x="-55.335506"
       y="-149.10016"
       transform="scale(-1)" />
    <rect
       style="fill:#ffff00;fill-opacity:1;stroke:none;stroke-width:1.05372"
       id="rect2297"
       width="3.047914"
       height="4.2234917"
       x="-40.449036"
       y="-144.22641"
       transform="scale(-1)" />
    <path
       style="fill:#2b2200;stroke:#2b2200;stroke-width:0.264583px;stroke-linecap:butt;stroke-linejoin:miter;stroke-opacity:1"
       d="M 40.449039,122.72759 V 153.2716"
       id="path1297"
       sodipodi:nodetypes="cc" />
    <path
       id="path8825"
       style="fill:none;stroke:#000000;stroke-width:0.15875;stroke-linecap:butt;stroke-linejoin:miter;stroke-miterlimit:4;stroke-dasharray:none;stroke-opacity:1"
       d="m 55.842457,153.47101 v 0.51542 m -2.116668,-0.51542 v 0.51542 m -2.116668,-0.51542 v 0.51542 m -2.116668,-0.51542 v 0.51542 m -2.116668,-0.51542 v 0.51542 m -2.116668,-0.51542 v 0.51542 m -2.116668,-0.51542 v 0.51542 m -2.116668,-0.51542 v 0.51542 m -2.116668,-0.51542 v 0.51542 m -2.116668,-0.51542 v 0.51542 m -2.116668,-0.51542 v 0.51542 m -2.116668,-0.51542 v 0.51542 m -2.116668,-0.51542 v 0.51542 m -2.116668,-0.51542 v 0.51542 m -2.116668,-0.51542 v 0.51542 m -2.116668,-0.51542 v 0.51542" />
    <path
       style="fill:none;stroke:#2b2200;stroke-width:0.225239px;stroke-linecap:butt;stroke-linejoin:miter;stroke-opacity:1"
       d="M 21.948528,153.33017 H 59.128386"
       id="path8827"
       sodipodi:nodetypes="cc" />
    <path
       id="path20458"
       style="fill:none;fill-opacity:1;stroke:#dada00;stroke-width:1.92669581;stroke-linecap:butt;stroke-linejoin:miter;stroke-miterlimit:4;stroke-dasharray:none;stroke-opacity:1;filter:url(#filter20460)"
       d="m 73.632609,75.017541 0.09323,-3.527368 C 72.370496,64.6225 71.202597,54.155727 66.741811,55.178787 65.938789,59.709607 63.723544,67.379526 61.300565,67.601699 57.70534,64.225428 52.420451,45.63043 51.495406,42.305661 49.954428,37.208648 44.615002,33.420391 43.002434,31.716155 38.928548,27.410686 41.116572,19.221196 37.169287,11.955144 36.597538,10.902688 35.915982,10.38083 35.157489,10.366338 h -9e-6 c -1.668684,-0.0319 -3.710118,2.392417 -5.775538,7.027832 -2.385888,5.35463 -7.020084,1.752008 -7.894753,15.609419 C 21.133615,38.6053 18.429434,48.776168 14.79686,46.474277 8.848983,42.705225 5.5533952,57.541657 3.2805289,74.317567"
       sodipodi:nodetypes="sscccccccsssc" />
    <path
       style="fill:none;stroke:#2b2200;stroke-width:0.588698;stroke-linecap:butt;stroke-linejoin:miter;stroke-miterlimit:4;stroke-dasharray:none;stroke-opacity:1"
       d="M 3.2633645,5.5519579 V 75.017541 H 78.618296"
       id="path66587"
       sodipodi:nodetypes="ccc" />
  </g>
</svg>
