<?xml version="1.0" encoding="UTF-8" standalone="no"?>
<!-- Created with Inkscape (http://www.inkscape.org/) -->

<svg
   width="300"
   height="300"
   viewBox="0 0 79.374999 79.374999"
   version="1.1"
   id="svg5"
   inkscape:version="1.1.2 (0a00cf5339, 2022-02-04)"
   sodipodi:docname="web-logo.svg"
   xmlns:inkscape="http://www.inkscape.org/namespaces/inkscape"
   xmlns:sodipodi="http://sodipodi.sourceforge.net/DTD/sodipodi-0.dtd"
   xmlns:xlink="http://www.w3.org/1999/xlink"
   xmlns="http://www.w3.org/2000/svg"
   xmlns:svg="http://www.w3.org/2000/svg">
  <sodipodi:namedview
     id="namedview7"
     pagecolor="#ffffff"
     bordercolor="#666666"
     borderopacity="1.0"
     inkscape:pageshadow="2"
     inkscape:pageopacity="0.0"
     inkscape:pagecheckerboard="0"
     inkscape:document-units="px"
     showgrid="false"
     inkscape:object-nodes="true"
     inkscape:snap-intersection-paths="true"
     inkscape:snap-smooth-nodes="true"
     inkscape:snap-midpoints="false"
     inkscape:zoom="1.1439496"
     inkscape:cx="114.07846"
     inkscape:cy="177.89246"
     inkscape:window-width="1366"
     inkscape:window-height="706"
     inkscape:window-x="0"
     inkscape:window-y="0"
     inkscape:window-maximized="1"
     inkscape:current-layer="layer1"
     inkscape:snap-nodes="false"
     units="px"
     width="300px" />
  <defs
     id="defs2">
    <linearGradient
       inkscape:collect="always"
       id="linearGradient47716">
      <stop
         style="stop-color:#1a1a1a;stop-opacity:1;"
         offset="0"
         id="stop47712" />
      <stop
         style="stop-color:#b19100;stop-opacity:1"
         offset="1"
         id="stop47714" />
    </linearGradient>
    <linearGradient
       inkscape:collect="always"
       id="linearGradient35213">
      <stop
         style="stop-color:#d4aa00;stop-opacity:1"
         offset="0"
         id="stop35209" />
      <stop
         style="stop-color:#bebebe;stop-opacity:1"
         offset="1"
         id="stop35211" />
    </linearGradient>
    <rect
       x="165.90932"
       y="359.71161"
       width="87.204277"
       height="85.745888"
       id="rect4082" />
    <rect
       x="165.90932"
       y="359.71161"
       width="87.204277"
       height="85.745888"
       id="rect24301" />
    <rect
       x="165.90932"
       y="359.71161"
       width="87.204277"
       height="85.745888"
       id="rect25177" />
    <linearGradient
       inkscape:collect="always"
       xlink:href="#linearGradient47716"
       id="linearGradient35601"
       gradientUnits="userSpaceOnUse"
       x1="38.060223"
       y1="98.714897"
       x2="34.710297"
       y2="104.19626"
       gradientTransform="matrix(1.7619866,0,0,1.7619866,-53.860704,-151.34793)" />
    <linearGradient
       inkscape:collect="always"
       xlink:href="#linearGradient47716"
       id="linearGradient47438"
       gradientUnits="userSpaceOnUse"
       x1="39.613274"
       y1="94.841499"
       x2="34.110634"
       y2="89.465515"
       gradientTransform="matrix(1.7619866,0,0,1.7619866,-53.860704,-151.34793)" />
    <linearGradient
       inkscape:collect="always"
       xlink:href="#linearGradient47716"
       id="linearGradient47718"
       x1="64.937386"
       y1="94.307907"
       x2="68.84539"
       y2="90.123268"
       gradientUnits="userSpaceOnUse"
       gradientTransform="matrix(1.7619866,0,0,1.7619866,-53.860704,-151.34793)" />
    <linearGradient
       inkscape:collect="always"
       xlink:href="#linearGradient47716"
       id="linearGradient49300"
       x1="69.940308"
       y1="108.578"
       x2="75.478027"
       y2="108.6601"
       gradientUnits="userSpaceOnUse"
       gradientTransform="matrix(1.7619866,0,0,1.7619866,-53.860704,-151.34793)" />
    <linearGradient
       inkscape:collect="always"
       xlink:href="#linearGradient35213"
       id="linearGradient50140"
       x1="66.332054"
       y1="121.07929"
       x2="69.480415"
       y2="124.11177"
       gradientUnits="userSpaceOnUse"
       gradientTransform="matrix(1.7619866,0,0,1.7619866,-53.860704,-151.34793)" />
    <linearGradient
       inkscape:collect="always"
       xlink:href="#linearGradient35213"
       id="linearGradient50532"
       x1="56.287285"
       y1="124.69171"
       x2="62.458008"
       y2="129.12343"
       gradientUnits="userSpaceOnUse"
       gradientTransform="matrix(1.7619866,0,0,1.7619866,-53.860704,-151.34793)" />
    <linearGradient
       inkscape:collect="always"
       xlink:href="#linearGradient35213"
       id="linearGradient51180"
       x1="43.500813"
       y1="123.83292"
       x2="45.354282"
       y2="128.72459"
       gradientUnits="userSpaceOnUse"
       gradientTransform="matrix(1.7619866,0,0,1.7619866,-53.860704,-151.34793)" />
  </defs>
  <g
     inkscape:label="Layer 1"
     inkscape:groupmode="layer"
     id="layer1">
    <g
       id="g25175"
       transform="matrix(1.7619867,0,0,1.7619867,-52.363108,-148.06675)"
       style="opacity:0.68;fill:#808080">
      <g
         aria-label="W"
         transform="matrix(0.26458333,0,0,0.26458333,-8.0731798,7.2116871)"
         id="g25165"
         style="font-size:64px;line-height:1.25;white-space:pre;shape-inside:url(#rect24301);fill:#808080;stroke:none">
        <path
           d="m 207.19141,417.05469 h -0.96875 l -10.21875,-27.09375 -9.875,27.09375 h -0.96875 l -12.34375,-34.375 c -1.0625,-3 -2.01042,-4.95833 -2.84375,-5.875 -0.83333,-0.91667 -2.08333,-1.45833 -3.75,-1.625 v -1.21875 h 15.6875 v 1.21875 c -1.625,0.10417 -2.72917,0.30208 -3.3125,0.59375 -0.5625,0.27083 -0.84375,0.76042 -0.84375,1.46875 0,0.72917 0.22917,1.70833 0.6875,2.9375 l 9.21875,24.0625 6.84375,-18.0625 -2.09375,-5.25 c -1.02083,-2.54167 -1.89583,-4.125 -2.625,-4.75 -0.70833,-0.625 -1.98958,-0.95833 -3.84375,-1 v -1.21875 h 17.09375 v 1.21875 c -3.29167,0.0625 -4.9375,0.81247 -4.9375,2.25 0,0.64583 0.32292,1.72917 0.96875,3.25 0.22917,0.5625 0.47917,1.20833 0.75,1.9375 l 8.46875,21.8125 c 14.23908,-38.29362 16.52633,-33.74081 -1.09375,12.625 z"
           style="font-family:Nakula;-inkscape-font-specification:Nakula;fill:#808080;stroke:none"
           id="path25163"
           sodipodi:nodetypes="ccccccscccccscccccccccscccc" />
      </g>
      <g
         aria-label="W"
         transform="matrix(-0.26458333,0,0,0.26458333,112.15831,7.1637766)"
         id="g25169"
         style="font-size:64px;line-height:1.25;white-space:pre;shape-inside:url(#rect24301);fill:#808080;stroke:none">
        <path
           d="m 207.19141,417.05469 h -0.96875 l -10.21875,-27.09375 -9.875,27.09375 h -0.96875 l -12.34375,-34.375 c -1.0625,-3 -2.01042,-4.95833 -2.84375,-5.875 -0.83333,-0.91667 -2.08333,-1.45833 -3.75,-1.625 v -1.21875 h 15.6875 v 1.21875 c -1.625,0.10417 -2.72917,0.30208 -3.3125,0.59375 -0.5625,0.27083 -0.84375,0.76042 -0.84375,1.46875 0,0.72917 0.22917,1.70833 0.6875,2.9375 l 9.21875,24.0625 6.84375,-18.0625 -2.09375,-5.25 c -1.02083,-2.54167 -1.89583,-4.125 -2.625,-4.75 -0.70833,-0.625 -1.98958,-0.95833 -3.84375,-1 v -1.21875 h 17.09375 v 1.21875 c -3.29167,0.0625 -4.9375,0.81247 -4.9375,2.25 0,0.64583 0.32292,1.72917 0.96875,3.25 0.22917,0.5625 0.47917,1.20833 0.75,1.9375 l 8.46875,21.8125 c 14.23908,-38.29362 16.52633,-33.74081 -1.09375,12.625 z"
           style="font-family:Nakula;-inkscape-font-specification:Nakula;fill:#808080;stroke:none"
           id="path25167"
           sodipodi:nodetypes="ccccccscccccscccccccccscccc" />
      </g>
      <text
         xml:space="preserve"
         transform="scale(0.26458333)"
         id="text25173"
         style="font-style:normal;font-weight:normal;font-size:64px;line-height:1.25;font-family:sans-serif;white-space:pre;shape-inside:url(#rect25177);fill:#808080;fill-opacity:1;stroke:none"><tspan
           x="165.91016"
           y="416.33594"
           id="tspan51901"><tspan
             style="font-family:Nakula;-inkscape-font-specification:Nakula"
             id="tspan51899">W</tspan></tspan></text>
    </g>
    <path
       id="path28936"
       style="opacity:1;fill:#d4aa00;stroke-width:3.21765"
       d="M 21.076976,1.3500759 0.93601297,21.491038 V 58.315681 L 21.076976,78.456643 H 57.901621 L 78.042581,58.315681 V 21.491038 L 57.901621,1.3500759 Z m 2.582267,5.4076483 H 55.319347 L 72.634931,24.07331 V 55.733414 L 55.319347,73.048994 H 23.659243 L 6.3436577,55.733414 V 24.07331 Z" />
    <g
       id="g25161"
       transform="matrix(1.7619867,0,0,1.7619867,-53.125244,-151.7491)"
       style="fill:#d4aa00;stroke:#2b2200">
      <g
         aria-label="W"
         transform="matrix(0.26458333,0,0,0.26458333,-8.0731798,7.2116871)"
         id="text24299"
         style="font-size:64px;line-height:1.25;white-space:pre;shape-inside:url(#rect24301);fill:#d4aa00;stroke:#2b2200">
        <path
           d="m 207.19141,417.05469 h -0.96875 l -10.21875,-27.09375 -9.875,27.09375 h -0.96875 l -12.34375,-34.375 c -1.0625,-3 -2.01042,-4.95833 -2.84375,-5.875 -0.83333,-0.91667 -2.08333,-1.45833 -3.75,-1.625 v -1.21875 h 15.6875 v 1.21875 c -1.625,0.10417 -2.72917,0.30208 -3.3125,0.59375 -0.5625,0.27083 -0.84375,0.76042 -0.84375,1.46875 0,0.72917 0.22917,1.70833 0.6875,2.9375 l 9.21875,24.0625 6.84375,-18.0625 -2.09375,-5.25 c -1.02083,-2.54167 -1.89583,-4.125 -2.625,-4.75 -0.70833,-0.625 -1.98958,-0.95833 -3.84375,-1 v -1.21875 h 17.09375 v 1.21875 c -3.29167,0.0625 -4.9375,0.81247 -4.9375,2.25 0,0.64583 0.32292,1.72917 0.96875,3.25 0.22917,0.5625 0.47917,1.20833 0.75,1.9375 l 8.46875,21.8125 c 14.23908,-38.29362 16.52633,-33.74081 -1.09375,12.625 z"
           style="font-family:Nakula;-inkscape-font-specification:Nakula;fill:#d4aa00;stroke:#2b2200"
           id="path24303"
           sodipodi:nodetypes="ccccccscccccscccccccccscccc" />
      </g>
      <g
         aria-label="W"
         transform="matrix(-0.26458333,0,0,0.26458333,112.15831,7.1637766)"
         id="g24919"
         style="font-size:64px;line-height:1.25;white-space:pre;shape-inside:url(#rect24301);fill:#d4aa00;stroke:#2b2200">
        <path
           d="m 207.19141,417.05469 h -0.96875 l -10.21875,-27.09375 -9.875,27.09375 h -0.96875 l -12.34375,-34.375 c -1.0625,-3 -2.01042,-4.95833 -2.84375,-5.875 -0.83333,-0.91667 -2.08333,-1.45833 -3.75,-1.625 v -1.21875 h 15.6875 v 1.21875 c -1.625,0.10417 -2.72917,0.30208 -3.3125,0.59375 -0.5625,0.27083 -0.84375,0.76042 -0.84375,1.46875 0,0.72917 0.22917,1.70833 0.6875,2.9375 l 9.21875,24.0625 6.84375,-18.0625 -2.09375,-5.25 c -1.02083,-2.54167 -1.89583,-4.125 -2.625,-4.75 -0.70833,-0.625 -1.98958,-0.95833 -3.84375,-1 v -1.21875 h 17.09375 v 1.21875 c -3.29167,0.0625 -4.9375,0.81247 -4.9375,2.25 0,0.64583 0.32292,1.72917 0.96875,3.25 0.22917,0.5625 0.47917,1.20833 0.75,1.9375 l 8.46875,21.8125 c 14.23908,-38.29362 16.52633,-33.74081 -1.09375,12.625 z"
           style="font-family:Nakula;-inkscape-font-specification:Nakula;fill:#d4aa00;stroke:#2b2200"
           id="path24917"
           sodipodi:nodetypes="ccccccscccccscccccccccscccc" />
      </g>
      <text
         xml:space="preserve"
         transform="scale(0.26458333)"
         id="text4080"
         style="font-style:normal;font-weight:normal;font-size:64px;line-height:1.25;font-family:sans-serif;white-space:pre;shape-inside:url(#rect4082);fill:#d4aa00;fill-opacity:1;stroke:#2b2200"><tspan
           x="165.91016"
           y="416.33594"
           id="tspan51905"><tspan
             style="font-family:Nakula;-inkscape-font-specification:Nakula"
             id="tspan51903">W</tspan></tspan></text>
    </g>
    <path
       style="fill:#1a1a1a;stroke:none;stroke-width:0.466191px;stroke-linecap:butt;stroke-linejoin:miter;stroke-opacity:1"
       d="m 23.647614,6.7694321 0.943762,1.9391978 29.79602,-3.5e-6 0.932039,-1.9509093 z"
       id="path34511" />
    <path
       style="fill:url(#linearGradient50532);fill-opacity:1;stroke:none;stroke-width:0.466191px;stroke-linecap:butt;stroke-linejoin:miter;stroke-opacity:1"
       d="m 23.659243,73.048981 0.932045,-1.950907 h 29.79602 l 0.932039,1.950907 z"
       id="path34509" />
    <path
       style="fill:url(#linearGradient49300);fill-opacity:1;stroke:none;stroke-width:0.466191px;stroke-linecap:butt;stroke-linejoin:miter;stroke-opacity:1"
       d="m 72.791199,24.224216 -2.107177,0.781131 -2.4e-5,29.796059 1.950909,0.932038 z"
       id="path34507" />
    <path
       style="fill:url(#linearGradient35601);fill-opacity:1;stroke:none;stroke-width:0.466191px;stroke-linecap:butt;stroke-linejoin:miter;stroke-opacity:1"
       d="m 6.3436836,24.073267 2.069459,1.049727 -0.1185638,29.678377 -1.9509175,0.932038 z"
       id="path34505" />
    <path
       style="fill:url(#linearGradient50140);fill-opacity:1;stroke:none;stroke-width:0.466191px;stroke-linecap:butt;stroke-linejoin:miter;stroke-opacity:1"
       d="M 55.319347,73.048998 72.634905,55.733444 70.683997,54.801406 54.387308,71.098074 Z"
       id="path34503" />
    <path
       style="fill:url(#linearGradient47438);fill-opacity:1;stroke:none;stroke-width:0.466191px;stroke-linecap:butt;stroke-linejoin:miter;stroke-opacity:1"
       d="M 23.64513,6.7645149 C 25.248322,5.198561 12.073552,18.259733 6.3436836,24.073267 L 8.4131426,25.122994 24.591288,8.708637 Z"
       id="path34501" />
    <path
       style="fill:url(#linearGradient51180);fill-opacity:1;stroke:none;stroke-width:0.466191px;stroke-linecap:butt;stroke-linejoin:miter;stroke-opacity:1"
       d="M 6.3436577,55.733409 23.659243,73.048981 24.591288,71.098074 8.2945752,54.801371 Z"
       id="path34499" />
    <path
       style="fill:url(#linearGradient47718);fill-opacity:1;stroke:none;stroke-width:0.466191px;stroke-linecap:butt;stroke-linejoin:miter;stroke-opacity:1"
       d="M 72.791199,24.224223 55.319347,6.7577242 54.387309,8.708637 70.684022,25.005347 Z"
       id="path31384" />
  </g>
</svg>
